<svg width="58" height="57" viewBox="0 0 58 59" fill="none" xmlns="http://www.w3.org/2000/svg" class="s-tech__img"><path d="M2.416 2.436h53.167v52.128H2.416V2.436z" fill="#001D26"></path><path d="M0 0v57h58V0H0zm2.417 2.436h53.166v52.128H2.417V2.436zm11.6 10.913c0-.17.338-.293.531-.293 1.547-.073 3.843-.121 6.235-.121 6.694 0 9.304 3.702 9.304 8.452 0 6.187-4.446 8.843-9.908 8.843-.918 0-1.232-.05-1.885-.05v9.355c0 .195-.072.292-.29.292h-3.697c-.194 0-.29-.073-.29-.292V13.349zm4.301 12.934c.556.05.991.05 1.958.05 2.827 0 5.486-1 5.486-4.873 0-3.093-1.91-4.652-5.124-4.652-.966 0-1.885.048-2.32.073v9.402zm20.784-2.898c-1.91 0-2.562.974-2.562 1.778 0 .877.435 1.486 2.997 2.825 3.794 1.852 4.978 3.63 4.978 6.236 0 3.898-2.948 5.993-6.936 5.993-2.102 0-3.915-.439-4.954-1.048-.17-.073-.193-.195-.193-.39V35.2c0-.244.12-.317.29-.195a8.918 8.918 0 004.857 1.437c1.91 0 2.707-.804 2.707-1.9 0-.877-.556-1.656-2.997-2.923-3.431-1.656-4.857-3.337-4.857-6.138 0-3.143 2.44-5.75 6.67-5.75 2.078 0 3.528.317 4.326.683.193.122.241.317.241.487v3.337c0 .195-.12.317-.362.244-1.064-.682-2.635-1.096-4.205-1.096z" fill="#00C8FF"></path></svg>