<svg xmlns="http://www.w3.org/2000/svg" xmlns:xlink="http://www.w3.org/1999/xlink" width="93.259" height="31.933" viewBox="0 0 93.259 31.933">
  <defs>
    <clipPath id="clip-Artboard_1">
      <rect width="93.259" height="31.933"/>
    </clipPath>
  </defs>
  <g id="Artboard_1" data-name="Artboard 1" clip-path="url(#clip-Artboard_1)">
    <g id="Group_11" data-name="Group 11">
      <g id="Group_7" data-name="Group 7">
        <g id="Group_6" data-name="Group 6">
          <g id="Group_1" data-name="Group 1">
            <path id="Path_1" data-name="Path 1" d="M49.218,31.933a.438.438,0,0,1-.454-.454.449.449,0,0,1,.454-.454H52.4V28.3H49.672a.877.877,0,0,1-.645-.263.892.892,0,0,1-.263-.645V25.577a.91.91,0,0,1,.908-.909h3.179a.461.461,0,0,1,.454.455.449.449,0,0,1-.454.454H49.672v1.816H52.4a.86.86,0,0,1,.638.269.873.873,0,0,1,.27.639v2.724a.867.867,0,0,1-.27.646.887.887,0,0,1-.638.262Z" fill="#004765"/>
            <path id="Path_2" data-name="Path 2" d="M55.121,31.933a.883.883,0,0,1-.646-.262.893.893,0,0,1-.262-.646V25.577a.869.869,0,0,1,.262-.639.881.881,0,0,1,.646-.27h2.724a.858.858,0,0,1,.639.27.876.876,0,0,1,.269.639v5.448a.87.87,0,0,1-.269.646.889.889,0,0,1-.639.262Zm2.724-.908V25.577H55.121v5.448Z" fill="#004765"/>
            <path id="Path_3" data-name="Path 3" d="M60.569,31.933a.879.879,0,0,1-.645-.262.894.894,0,0,1-.263-.646v-5.9a.449.449,0,0,1,.454-.455.461.461,0,0,1,.454.455v5.9h3.178a.461.461,0,0,1,.454.454.449.449,0,0,1-.454.454Z" fill="#004765"/>
            <path id="Path_4" data-name="Path 4" d="M66.017,31.933a.88.88,0,0,1-.645-.262.894.894,0,0,1-.263-.646v-5.9a.449.449,0,0,1,.454-.455.442.442,0,0,1,.32.135.437.437,0,0,1,.134.32v5.9h2.725v-5.9a.447.447,0,0,1,.454-.455.461.461,0,0,1,.454.455v5.9a.867.867,0,0,1-.27.646.887.887,0,0,1-.638.262Z" fill="#004765"/>
            <path id="Path_5" data-name="Path 5" d="M72.5,31.805a.457.457,0,0,1-.128-.326v-5.9H71.012a.438.438,0,0,1-.454-.454.449.449,0,0,1,.454-.455h3.632a.461.461,0,0,1,.454.455.449.449,0,0,1-.454.454H73.282v5.9a.449.449,0,0,1-.454.454A.457.457,0,0,1,72.5,31.805Z" fill="#004765"/>
            <path id="Path_6" data-name="Path 6" d="M76.134,31.805a.453.453,0,0,1-.128-.326V25.123a.449.449,0,0,1,.454-.455.461.461,0,0,1,.454.455v6.356a.443.443,0,0,1-.135.326.449.449,0,0,1-.319.128A.457.457,0,0,1,76.134,31.805Z" fill="#004765"/>
            <path id="Path_7" data-name="Path 7" d="M78.73,31.933a.88.88,0,0,1-.645-.262.894.894,0,0,1-.263-.646V25.577a.91.91,0,0,1,.908-.909h2.725a.857.857,0,0,1,.638.27.873.873,0,0,1,.27.639v5.448a.867.867,0,0,1-.27.646.887.887,0,0,1-.638.262Zm2.725-.908V25.577H78.73v5.448Z" fill="#004765"/>
            <path id="Path_8" data-name="Path 8" d="M83.4,31.805a.456.456,0,0,1-.127-.326v-5.9a.869.869,0,0,1,.262-.639.881.881,0,0,1,.646-.27h.908a.857.857,0,0,1,.638.27.873.873,0,0,1,.27.639v5.448H86.9v-5.9a.449.449,0,0,1,.454-.455.461.461,0,0,1,.454.455v5.9a.87.87,0,0,1-.269.646.889.889,0,0,1-.639.262H86a.883.883,0,0,1-.646-.262.893.893,0,0,1-.262-.646V25.577h-.908v5.9a.443.443,0,0,1-.135.326.449.449,0,0,1-.319.128A.459.459,0,0,1,83.4,31.805Z" fill="#004765"/>
            <path id="Path_9" data-name="Path 9" d="M89.173,31.933a.438.438,0,0,1-.454-.454.449.449,0,0,1,.454-.454h3.178V28.3H89.627a.876.876,0,0,1-.645-.263.888.888,0,0,1-.263-.645V25.577a.866.866,0,0,1,.263-.639.877.877,0,0,1,.645-.27h3.178a.461.461,0,0,1,.454.455.449.449,0,0,1-.454.454H89.627v1.816h2.724a.86.86,0,0,1,.639.269.876.876,0,0,1,.269.639v2.724a.87.87,0,0,1-.269.646.889.889,0,0,1-.639.262Z" fill="#004765"/>
          </g>
          <path id="Path_10" data-name="Path 10" d="M51.563,22.385a2.7,2.7,0,0,1-1.99-.809,2.749,2.749,0,0,1-.809-1.989v-5.6a2.682,2.682,0,0,1,.809-1.968,2.717,2.717,0,0,1,1.99-.83h8.394V2.8H51.563V4.2a1.381,1.381,0,0,1-1.4,1.4,1.347,1.347,0,0,1-1.4-1.4V2.8A2.678,2.678,0,0,1,49.573.831,2.714,2.714,0,0,1,51.563,0h8.394a2.642,2.642,0,0,1,1.967.831A2.689,2.689,0,0,1,62.755,2.8v8.395a2.666,2.666,0,0,1-.831,1.989,2.724,2.724,0,0,1-1.967.809H51.563v5.6h9.793a1.419,1.419,0,0,1,1.4,1.4,1.38,1.38,0,0,1-1.4,1.4Z" fill="#004765"/>
          <g id="Group_3" data-name="Group 3">
            <g id="Group_2" data-name="Group 2">
              <path id="Path_11" data-name="Path 11" d="M64.847,21.992a1.41,1.41,0,0,1-.393-1.006V2.8A2.674,2.674,0,0,1,65.263.831,2.711,2.711,0,0,1,67.252,0h9.793a1.348,1.348,0,0,1,.984.415,1.344,1.344,0,0,1,.415.984A1.369,1.369,0,0,1,78.029,2.4a1.384,1.384,0,0,1-.984.393H67.252v8.341h6.941a1.417,1.417,0,0,1,1.4,1.4,1.381,1.381,0,0,1-1.4,1.4H67.252v7.049a1.381,1.381,0,0,1-1.4,1.4A1.41,1.41,0,0,1,64.847,21.992Z" fill="#f36b11"/>
            </g>
          </g>
          <g id="Group_5" data-name="Group 5">
            <g id="Group_4" data-name="Group 4">
              <path id="Path_12" data-name="Path 12" d="M79.662,21.992a1.411,1.411,0,0,1-.394-1.006V2.8A2.678,2.678,0,0,1,80.077.831,2.714,2.714,0,0,1,82.067,0h8.394a2.642,2.642,0,0,1,1.967.831A2.689,2.689,0,0,1,93.259,2.8V20.986a1.38,1.38,0,0,1-1.4,1.4,1.347,1.347,0,0,1-1.4-1.4V13.991H82.067v6.995a1.381,1.381,0,0,1-1.4,1.4A1.408,1.408,0,0,1,79.662,21.992Zm10.8-10.8V2.8H82.067v8.395Z" fill="#f36b11"/>
            </g>
          </g>
        </g>
      </g>
      <g id="Group_10" data-name="Group 10">
        <g id="Group_9" data-name="Group 9">
          <path id="Path_13" data-name="Path 13" d="M42.955,6.017v4.112a1.145,1.145,0,0,1-1.145,1.145H38.441A1.145,1.145,0,0,1,37.3,10.129V7.48a2.392,2.392,0,0,0-2.391-2.391H25.929a1.718,1.718,0,0,0-1.9,1.345,4.209,4.209,0,0,0-.134.889V13.6l-1.785.8-.092.041L18.8,15.877C15.9,17.221,6.972,21.2,6.972,21.2c-1.48.713-1.883,1.174-1.883,3.138,0,2.042.9,2.5,2.036,2.5H13.27v0h3.41c.052,0,.1,0,.154,0h0A1.778,1.778,0,0,0,18.8,24.808V19.119a1.212,1.212,0,0,1,.717-1.107l4.365-1.953,0,0,0,0c.048,0,.1,0,.148,0h8.028a1.2,1.2,0,0,1,1.2,1.2v2.69a1.2,1.2,0,0,1-1.2,1.2H23.891V23.96q0,5.654-4.864,7.634a6.6,6.6,0,0,1-1.695.339h-9.9C3.742,31.933.633,29.856.114,26c-.041-.413-.073-1.132-.093-1.751C0,23.755,0,23.329,0,23.156v-.409a5.758,5.758,0,0,1,3.26-5.191q3.184-1.53,9.264-4.3l6.239-2.832.016-.007.021-.009v-3.3A4.69,4.69,0,0,0,18.722,6.1c-.163-.72-.639-1.014-1.956-1.014H6.524A1.436,1.436,0,0,0,5.089,6.525V6.7a1.747,1.747,0,0,1-1.1,1.62l-2.159.865A1.337,1.337,0,0,1,0,7.948V5.81A5.81,5.81,0,0,1,5.81,0H16.455A10.616,10.616,0,0,1,18.8.312,10.484,10.484,0,0,1,21.1,1.6c.03.023.062.047.092.072l.086-.072A7.861,7.861,0,0,1,26.239,0h10.7A6.017,6.017,0,0,1,42.955,6.017Z" fill="#004765"/>
          <g id="Group_8" data-name="Group 8">
            <path id="Path_14" data-name="Path 14" d="M38.484,16.056h3.284a1.187,1.187,0,0,1,1.187,1.187V29.99a1.943,1.943,0,0,1-1.943,1.943H39.24A1.943,1.943,0,0,1,37.3,29.99V17.243A1.186,1.186,0,0,1,38.484,16.056Z" fill="#f36b11"/>
          </g>
        </g>
      </g>
    </g>
  </g>
</svg>
