<svg width="50" height="50" viewBox="0 0 50 50" fill="none" xmlns="http://www.w3.org/2000/svg" class="s-tech__img"><path d="M47.004 25.97a8.655 8.655 0 00-5.728-8.166c.148-.78.223-1.562.223-2.362C41.499 8.58 35.919 3 29.075 3a12.408 12.408 0 00-10.08 5.152 6.604 6.604 0 00-10.638 5.226c0 .8.148 1.58.409 2.306C5.343 16.912 3 20.204 3 23.867a8.679 8.679 0 005.747 8.184 12.403 12.403 0 00-.223 2.362c0 6.844 5.56 12.405 12.405 12.405 4.017 0 7.737-1.934 10.062-5.17a6.5 6.5 0 004.036 1.413 6.604 6.604 0 006.602-6.602c0-.8-.149-1.581-.41-2.307 3.423-1.227 5.785-4.519 5.785-8.183z" fill="#fff"></path><path d="M20.296 21.877l9.634 4.39 9.709-8.518a10.18 10.18 0 00.204-2.14c0-5.988-4.873-10.86-10.861-10.86-3.59 0-6.919 1.766-8.946 4.723l-1.618 8.388 1.878 4.017z" fill="#FED10A"></path><path d="M10.328 32.07a10.528 10.528 0 00-.205 2.175c0 6.008 4.892 10.88 10.899 10.88a10.89 10.89 0 009.002-4.76l1.599-8.351-2.139-4.092-9.671-4.408-9.485 8.555z" fill="#24BBB1"></path><path d="M10.273 15.405l6.603 1.562 1.45-7.495a5.18 5.18 0 00-3.161-1.06 5.21 5.21 0 00-4.892 6.993z" fill="#EF5098"></path><path d="M9.696 16.986c-2.938.967-5.003 3.794-5.003 6.9a7.297 7.297 0 004.687 6.807l9.262-8.37-1.692-3.626-7.254-1.71z" fill="#1BA9F5"></path><path d="M31.697 40.364a5.224 5.224 0 003.143 1.08 5.21 5.21 0 005.208-5.209c0-.632-.111-1.246-.316-1.804l-6.584-1.543-1.45 7.476z" fill="#93C83E"></path><path d="M33.037 31.158l7.253 1.692c2.957-.967 5.003-3.794 5.003-6.918a7.273 7.273 0 00-4.687-6.789l-9.485 8.314 1.916 3.701z" fill="#07C"></path></svg>