<svg viewBox="0 0 512 512" xmlns="http://www.w3.org/2000/svg" class="s-tech__img"><defs><linearGradient x1="-75.112%" y1="45.193%" x2="156.774%" y2="56.983%" id="a"><stop stop-color="#999875" offset="23%"></stop><stop stop-color="#9B9977" offset="56%"></stop><stop stop-color="#A09F7E" offset="68%"></stop><stop stop-color="#A9A889" offset="77%"></stop><stop stop-color="#B7B69A" offset="84%"></stop><stop stop-color="#C9C7B0" offset="90%"></stop><stop stop-color="#DEDDCB" offset="95%"></stop><stop stop-color="#F8F6EB" offset="99%"></stop><stop stop-color="#FBF9EF" offset="100%"></stop></linearGradient><linearGradient x1="-19.427%" y1="1.795%" x2="75.935%" y2="98.646%" id="b"><stop stop-color="#48A547" offset="0%"></stop><stop stop-color="#3F9143" offset="100%"></stop></linearGradient><linearGradient x1="-12.412%" y1="57.365%" x2="149.95%" y2="47.402%" id="c"><stop stop-color="#41A247" offset="0%"></stop><stop stop-color="#4BA74B" offset="35%"></stop><stop stop-color="#67B554" offset="96%"></stop><stop stop-color="#69B655" offset="100%"></stop></linearGradient></defs><g fill-rule="nonzero" fill="none"><path d="M106.82 431.512l-11.6-3.832s1.475-58.584-19.696-62.68c-13.957-16.144 2.148-689.52 52.86-2.312 0 0-17.355 8.704-20.642 23.472-3.287 14.768-.922 45.352-.922 45.352z" fill="url(#a)" transform="translate(159 40)"></path><path d="M113.073 374.944s100.792-66.24 77.175-203.808c-22.743-99.944-76.421-132.8-82.201-145.344C101.697 16.92 95.3 1.184 95.3 1.184l4.29 278.472s-8.867 85.032 13.483 95.288z" fill="url(#b)" transform="translate(159 40)"></path><path d="M89.328 378.64S-5.21 314.288.232 200.736C5.676 87.184 72.437 31.344 85.44 21.216 93.85 12.272 94.194 8.824 94.844 0c5.9 12.632 4.922 188.688 5.539 209.264 2.429 80.096-4.441 154.256-11.055 169.376z" fill="url(#c)" transform="translate(159 40)"></path></g></svg>