<svg width="50" height="50" viewBox="0 0 50 50" fill="none" xmlns="http://www.w3.org/2000/svg" class="s-tech__img"><path d="M35.71 36.576c.292-2.422.204-2.778 2.01-2.385l.457.04c1.388.063 3.203-.223 4.27-.718 2.295-1.066 3.656-2.844 1.392-2.377-5.163 1.065-5.518-.683-5.518-.683 5.452-8.09 7.731-18.358 5.764-20.871-5.366-6.857-14.653-3.614-14.809-3.53l-.05.009a18.405 18.405 0 00-3.444-.359c-2.336-.038-4.109.612-5.454 1.633 0 0-16.569-6.827-15.798 8.584.164 3.279 4.7 24.807 10.108 18.304 1.977-2.377 3.888-4.388 3.888-4.388.948.63 2.084.952 3.276.836l.092-.078c-.03.295-.016.584.037.926-1.394 1.557-.984 1.83-3.77 2.403-2.819.581-1.163 1.616-.082 1.886 1.31.328 4.343.792 6.392-2.076l-.082.327c.547.437.51 3.143.588 5.076.077 1.934.207 3.738.6 4.802.395 1.063.86 3.803 4.521 3.018 3.06-.656 5.4-1.6 5.613-10.379" fill="#000"></path><path d="M35.71 36.576c.292-2.422.204-2.778 2.01-2.385l.457.04c1.388.063 3.203-.223 4.27-.718 2.295-1.066 3.656-2.844 1.392-2.377-5.163 1.065-5.518-.683-5.518-.683 5.452-8.09 7.731-18.358 5.764-20.871-5.366-6.857-14.653-3.614-14.809-3.53l-.05.009a18.405 18.405 0 00-3.444-.359c-2.336-.038-4.109.612-5.454 1.633 0 0-16.569-6.827-15.798 8.584.164 3.279 4.7 24.807 10.108 18.304 1.977-2.377 3.888-4.388 3.888-4.388.948.63 2.084.952 3.276.836l.092-.078c-.03.295-.016.584.037.926-1.394 1.557-.984 1.83-3.77 2.403-2.819.581-1.163 1.616-.082 1.886 1.31.328 4.343.792 6.392-2.076l-.082.327c.547.437.51 3.143.588 5.076.077 1.934.207 3.738.6 4.802.395 1.063.86 3.803 4.521 3.018 3.06-.656 5.4-1.6 5.613-10.379" stroke="#000" stroke-width="3.839"></path><path d="M43.84 31.136c-5.163 1.065-5.518-.683-5.518-.683 5.452-8.09 7.73-18.359 5.764-20.872-5.366-6.856-14.654-3.613-14.809-3.53l-.05.01a18.414 18.414 0 00-3.445-.36c-2.336-.037-4.108.613-5.453 1.633 0 0-16.57-6.826-15.799 8.585.164 3.279 4.699 24.807 10.108 18.304a99.856 99.856 0 013.888-4.388c.948.63 2.084.952 3.275.837l.093-.079a3.61 3.61 0 00.037.926c-1.394 1.557-.984 1.83-3.77 2.404-2.819.58-1.163 1.615-.082 1.885 1.31.328 4.343.792 6.392-2.076l-.082.327c.546.437.93 2.845.865 5.027-.064 2.182-.107 3.68.323 4.85.43 1.17.86 3.804 4.521 3.02 3.06-.656 4.646-2.356 4.867-5.19.156-2.015.51-1.718.533-3.52l.284-.852c.328-2.732.052-3.613 1.937-3.203l.459.04c1.387.063 3.203-.223 4.269-.719 2.295-1.065 3.656-2.843 1.393-2.376z" fill="#336791"></path><path d="M24.694 32.701c-.142 5.083.036 10.202.533 11.445.498 1.244 1.563 3.664 5.225 2.88 3.06-.657 4.173-1.926 4.656-4.728.356-2.061 1.042-7.787 1.13-8.96M20.303 7.22S3.722.443 4.493 15.854c.164 3.279 4.7 24.808 10.108 18.305 1.977-2.378 3.765-4.243 3.765-4.243M29.26 5.985c-.574.18 9.224-3.581 14.791 3.533 1.967 2.513-.312 12.782-5.764 20.872" stroke="#fff" stroke-width="1.28" stroke-linecap="round" stroke-linejoin="round"></path><path d="M38.286 30.39s.355 1.749 5.52.683c2.262-.467.9 1.311-1.394 2.377-1.884.874-6.106 1.098-6.175-.11-.177-3.116 2.222-2.17 2.05-2.95-.157-.703-1.23-1.393-1.94-3.114-.62-1.502-8.5-13.022 2.185-11.31.391-.082-2.787-10.164-12.786-10.328-9.997-.164-9.669 12.294-9.669 12.294" stroke="#fff" stroke-width="1.28" stroke-linecap="round" stroke-linejoin="bevel"></path><path d="M21.895 31.455c-1.394 1.556-.984 1.83-3.77 2.404-2.819.58-1.163 1.614-.082 1.885 1.31.328 4.343.792 6.392-2.077.624-.873-.004-2.267-.86-2.622-.415-.172-.969-.387-1.68.41v0z" stroke="#fff" stroke-width="1.28" stroke-linecap="round" stroke-linejoin="round"></path><path d="M21.802 31.428c-.14-.916.301-2.005.774-3.28.71-1.911 2.35-3.824 1.038-9.889-.977-4.52-7.534-.94-7.538-.328-.004.613.296 3.107-.11 6.01-.53 3.79 2.412 6.995 5.798 6.667" stroke="#fff" stroke-width="1.28" stroke-linecap="round" stroke-linejoin="round"></path><path d="M20.242 17.84c-.03.21.383.769.921.843.537.075.997-.361 1.026-.57.03-.21-.383-.44-.921-.515-.538-.075-.998.034-1.026.243h0z" fill="#fff" stroke="#fff" stroke-width=".427"></path><path d="M36.606 17.415c.03.21-.383.768-.921.843-.538.075-.998-.362-1.027-.571-.029-.21.384-.44.921-.515.538-.075.998.034 1.027.243v0z" fill="#fff" stroke="#fff" stroke-width=".213"></path><path d="M38.53 15.963c.089 1.642-.353 2.76-.409 4.508-.083 2.54 1.211 5.448-.738 8.36" stroke="#fff" stroke-width="1.28" stroke-linecap="round" stroke-linejoin="round"></path></svg>