<svg width="50" height="50" viewBox="0 0 400 400" xmlns="http://www.w3.org/2000/svg" class="s-tech__img"><g fill-rule="evenodd"><path d="M329.4 8.087c-15.78 2.471-32.776 15.529-51.428 39.513-27.448 35.294-53.262 91.484-62.173 135.33l-.656 3.23 1.407 3.27c3.198 7.433 7.662 21.713 8.649 27.67.091.55.225 1.27.296 1.6.166.761-.756-1.389-1.32-3.078-.844-2.531-10.917-21.569-11.517-21.769-.174-.058-2.874 8.041-5.06 15.177l-1.021 3.331 1.184 2.369c3.466 6.936 7.157 18.131 10.031 30.424 1.043 4.457 1.009 4.577-.267.946-1.792-5.101-6.54-14.453-12.433-24.489l-.757-1.289-.464 1.689c-1.534 5.585-3.067 13.023-3.481 16.883-.33 3.078-.182 3.951 1.12 6.619 4.202 8.609 8.474 25.526 12.722 50.387l1.025 6 .036 16c.022 9.473.133 17.55.271 19.8 1.165 18.888 2.072 27.165 4.162 38 1.163 6.032 3.607 14.927 4.477 16.3.26.41 2.868-.923 2.733-1.396l-.905-3.104c-10.544-36.132-6.541-96.232 10.592-159 5.199-19.048 9.36-31.8 14.783-45.3 22.818-56.814 52.412-105.291 82.781-135.604 5.212-5.203 11.11-10.619 9.113-8.369-4.384 4.938-5.447 6.171-7.22 8.373-19.434 24.128-46.34 72.929-67.981 123.3-16.624 38.696-31.634 87.907-38.695 126.865-.698 3.855-.701 4.633-.008 2.535 5.629-17.045 22.323-34.496 42.122-44.032l2.619-1.261 2.398-3.054c7.258-9.243 14.961-19.657 22.969-31.053 4.514-6.425 11.324-16.539 11.211-16.652-.12-.12-11.639 2.584-19.434 4.563-11.911 3.023-15.731 4.233-22.181 7.025-5.595 2.421-5.53 2.398-3.8 1.36 14.2-8.522 37.1-19.397 50.166-23.823l3.166-1.073 2.596-4.169c51.449-82.597 63.997-141.085 36.388-169.604-8.13-8.398-17.98-12.042-28.216-10.44" fill="#043c54"></path><path d="M54.3 24.938C41.013 26.662 31.175 35.9 28.463 49.2c-.406 1.988-.681 268.809-.282 273.3 1.298 14.626 12.309 25.706 26.919 27.091 1.484.141 28.098.209 81.773.209h79.573l-.123-1.05c-.701-6.01-1.163-20.586-1.093-34.55l.061-12.3-1.042-6c-4.442-25.569-8.543-41.791-12.739-50.387-1.302-2.668-1.45-3.541-1.12-6.619.414-3.86 1.947-11.298 3.481-16.883l.464-1.689.757 1.289c5.893 10.036 10.641 19.388 12.433 24.489 1.276 3.631 1.31 3.511.267-.946-2.874-12.293-6.565-23.488-10.031-30.424l-1.184-2.369 1.021-3.331c2.186-7.136 4.886-15.235 5.06-15.177.66.22 10.697 19.311 11.638 22.136.979 2.94 1.117 1.725.219-1.942-2.231-9.12-5.065-17.877-7.966-24.619l-1.408-3.272.639-3.128c.526-2.574 2.783-12.139 3.122-13.228.083-.266-10.105-.294-91.004-.25l-91.098.051.003-58.851c.002-56.674.016-58.917.376-60.65 1.693-8.161 7.56-14.114 16.02-16.256 1.199-.304 10.488-.334 118.983-.388l117.683-.059-.377.451c-.207.249.277-.241 1.075-1.088.798-.846 2.95-2.984 4.782-4.75l3.33-3.21-121.887.03c-67.039.016-122.158.065-122.488.108" fill="#1386cd"></path><path d="M55.6 33.526C47.075 34.747 41.038 39.31 38.173 46.7c-1.486 3.831-1.367-1.707-1.37 64.05L36.8 169.6l91.021-.05 91.02-.05 1.253-4.4c13.635-47.878 40.144-98.75 67.019-128.608a321.362 321.362 0 002.368-2.65l.381-.442-116.881.027c-64.285.015-117.106.06-117.381.099" fill="#7ac6ed"></path></g></svg>