<svg xmlns="http://www.w3.org/2000/svg" viewBox="0 0 290.2 343.3" class="s-tech__img"><path fill="#264DE4" d="M290.167 14.2l-26.4 296.1-118.9 33-118.5-32.9-26.4-296.2z"></path><path fill="#2965F1" d="M241.167 291.5l22.5-253.1h-118.6v279.7z"></path><path fill="#EBEBEB" d="M60.567 148.2l3.2 36.4h81.3v-36.4zM145.067 74.7h-91.1l3.3 36.3h87.8zM145.067 280.4v-37.8h-.1l-40.5-10.9-2.6-29H65.467l5 57.1 74.5 20.6z"></path><path fill="#FFF" d="M189.667 184.6l-4.2 47.1-40.5 10.9v37.8l74.5-20.6.5-6.2 8.6-95.6.8-9.8 6.6-73.5h-91V111h51.2l-3.3 37.2h-47.9v36.4z"></path></svg>