<svg width="50" height="50" viewBox="0 0 50 50" fill="none" xmlns="http://www.w3.org/2000/svg" class="s-tech__img"><path d="M23.625 4.011c-.09.009-.378.037-.637.058-5.965.538-11.553 3.756-15.092 8.702a20.785 20.785 0 00-3.707 9.175C4.02 23.099 4 23.44 4 25.004c0 1.564.02 1.905.189 3.058 1.141 7.886 6.754 14.511 14.365 16.966 1.363.44 2.8.739 4.434.92.637.07 3.387.07 4.024 0 2.82-.312 5.21-1.01 7.566-2.213.362-.185.431-.234.382-.275-.033-.025-1.572-2.09-3.42-4.585l-3.358-4.536-4.208-6.227c-2.316-3.424-4.22-6.224-4.237-6.224-.017-.004-.033 2.763-.041 6.141-.013 5.916-.017 6.154-.09 6.293-.108.201-.19.284-.362.374-.131.066-.246.078-.866.078h-.71l-.19-.12a.767.767 0 01-.275-.299l-.086-.184.008-8.231.013-8.235.127-.16c.066-.086.205-.197.304-.25.168-.082.234-.09.944-.09.838 0 .977.033 1.195.27.062.066 2.34 3.498 5.066 7.632 2.726 4.133 6.454 9.778 8.285 12.549l3.326 5.036.168-.11c1.49-.97 3.067-2.349 4.315-3.785a20.902 20.902 0 004.943-10.735c.169-1.153.189-1.494.189-3.058 0-1.564-.02-1.905-.189-3.058C44.67 14.06 39.057 7.435 31.446 4.98c-1.343-.435-2.772-.735-4.373-.915-.394-.041-3.108-.087-3.448-.054zm8.597 12.701a.828.828 0 01.414.485c.033.106.041 2.389.033 7.532l-.012 7.38-1.302-1.994-1.305-1.995v-5.365c0-3.47.016-5.419.04-5.513.067-.23.21-.41.407-.518.169-.086.23-.094.875-.094.608 0 .714.008.85.082z" fill="#000"></path></svg>