<svg width="50" height="50" viewBox="0 0 50 50" fill="none" xmlns="http://www.w3.org/2000/svg" class="s-tech__img"><path d="M18.808 38.355s-1.849 1.075 1.316 1.439c3.834.437 5.794.375 10.019-.425 0 0 1.11.697 2.662 1.3-9.472 4.06-21.436-.235-13.997-2.314zM17.65 33.058s-2.073 1.535 1.094 1.862c4.096.423 7.33.457 12.927-.62 0 0 .774.785 1.991 1.214-11.451 3.348-24.206.264-16.011-2.456z" fill="#5382A1"></path><path d="M27.408 24.072c2.334 2.687-.613 5.105-.613 5.105s5.926-3.06 3.204-6.89c-2.541-3.572-4.49-5.347 6.062-11.467 0 0-16.564 4.136-8.653 13.252z" fill="#F8981D"></path><path d="M39.935 42.273s1.368 1.127-1.507 2c-5.467 1.656-22.754 2.156-27.557.066-1.726-.751 1.511-1.794 2.53-2.012 1.062-.23 1.669-.188 1.669-.188-1.92-1.352-12.41 2.656-5.328 3.804 19.31 3.132 35.202-1.41 30.193-3.67zM19.699 27.57s-8.794 2.088-3.114 2.846c2.398.321 7.178.249 11.631-.124 3.64-.307 7.294-.96 7.294-.96s-1.283.55-2.212 1.183c-8.93 2.349-26.18 1.256-21.214-1.146 4.2-2.03 7.615-1.8 7.615-1.8zM35.471 36.387c9.078-4.717 4.88-9.25 1.951-8.64-.718.15-1.038.28-1.038.28s.267-.418.776-.599c5.795-2.037 10.252 6.01-1.87 9.196 0 0 .14-.125.181-.237z" fill="#5382A1"></path><path d="M29.999.938S35.026 5.967 25.23 13.7c-7.855 6.203-1.792 9.74-.004 13.78-4.585-4.136-7.95-7.778-5.692-11.167C22.848 11.338 32.027 8.926 29.999.938z" fill="#F8981D"></path><path d="M20.59 49.169c8.713.558 22.094-.31 22.41-4.433 0 0-.609 1.563-7.2 2.805-7.437 1.4-16.61 1.236-22.05.339 0 0 1.114.921 6.84 1.289z" fill="#5382A1"></path></svg>