<svg xmlns="http://www.w3.org/2000/svg"  preserveAspectRatio="xMinYMin meet" viewBox="44 65 120 120" class="s-tech__img"><path fill="#376A95" d="M99.75 67.469c-28.032 0-26.281 12.156-26.281 12.156l.031 12.594h26.75V96H62.875s-17.938-2.034-17.938 26.25 15.657 27.281 15.657 27.281h9.343v-13.125s-.503-15.656 15.407-15.656h26.531s14.906.241 14.906-14.406V82.125s2.263-14.656-27.031-14.656zM85 75.938a4.808 4.808 0 014.813 4.812A4.808 4.808 0 0185 85.563a4.808 4.808 0 01-4.813-4.813A4.808 4.808 0 0185 75.937z" class="svg-brand"></path><path fill="#FCC232" d="M100.546 177.315c28.032 0 26.281-12.156 26.281-12.156l-.03-12.594h-26.75v-3.781h37.374s17.938 2.034 17.938-26.25c0-28.285-15.657-27.282-15.657-27.282h-9.343v13.125s.503 15.657-15.407 15.657h-26.53s-14.907-.241-14.907 14.406v24.219s-2.263 14.656 27.031 14.656zm14.75-8.469c-2.661 0 5.188-2.151-4.812-4.812a4.808 4.808 0 014.812-4.813 4.808 4.808 0 014.813 4.813 4.808 4.808 0 01-4.813 4.812z" class="svg-brand"></path></svg>